<svg width="18" height="19" viewBox="0 0 18 19" fill="none" xmlns="http://www.w3.org/2000/svg">
  <path fill-rule="evenodd" clip-rule="evenodd" d="M9 18.5C13.9706 18.5 18 14.4706 18 9.5C18 4.52944 13.9706 0.5 9 0.5C4.02944 0.5 0 4.52944 0 9.5C0 14.4706 4.02944 18.5 9 18.5ZM10.0078 6.37818C10.0078 6.65432 9.78396 6.87818 9.50782 6.87818H8.4924C8.21626 6.87818 7.9924 6.65432 7.9924 6.37818V5.68726C7.9924 5.41111 8.21626 5.18726 8.4924 5.18726L9.50782 5.18725C9.78396 5.18725 10.0078 5.41111 10.0078 5.68725V6.37818ZM9.95976 13.3128C9.95976 13.589 9.73591 13.8128 9.45976 13.8128H8.52883C8.25269 13.8128 8.02883 13.589 8.02883 13.3128L8.02883 8.9367C8.02883 8.66055 8.25268 8.43669 8.52883 8.43669H9.45976C9.7359 8.43669 9.95976 8.66055 9.95976 8.93669L9.95976 13.3128Z" fill="#F51B1B"/>
</svg>
