<svg width="18" height="18" viewBox="0 0 18 18" fill="none" xmlns="http://www.w3.org/2000/svg">
  <path fill-rule="evenodd" clip-rule="evenodd" d="M9 18C13.9706 18 18 13.9706 18 9C18 4.02944 13.9706 0 9 0C4.02944 0 0 4.02944 0 9C0 13.9706 4.02944 18 9 18ZM10.0078 5.87818C10.0078 6.15432 9.78396 6.37818 9.50782 6.37818H8.4924C8.21626 6.37818 7.9924 6.15432 7.9924 5.87818V5.18726C7.9924 4.91111 8.21626 4.68726 8.4924 4.68726L9.50782 4.68725C9.78396 4.68725 10.0078 4.91111 10.0078 5.18725V5.87818ZM9.95976 12.8128C9.95976 13.089 9.73591 13.3128 9.45976 13.3128H8.52883C8.25269 13.3128 8.02883 13.089 8.02883 12.8128L8.02883 8.4367C8.02883 8.16055 8.25268 7.93669 8.52883 7.93669H9.45976C9.7359 7.93669 9.95976 8.16055 9.95976 8.43669L9.95976 12.8128Z" fill="#0D0C0C"/>
</svg>
